<?xml version="1.0" encoding="UTF-8" standalone="no"?>
<svg
   id="svg8"
   viewBox="0 0 198.43783 202.9"
   version="1.1"
   width="198.43782"
   height="202.89999"
   xmlns="http://www.w3.org/2000/svg"
   xmlns:svg="http://www.w3.org/2000/svg">
  <defs
     id="defs949">
    <style
       id="style947">
      .cls-1 {
        stroke: #FFFFFF;
        stroke-miterlimit: 10;
        stroke-width: .5px;
      }

      .cls-1, .cls-2 {
        fill: #FFFFFF;
      }
    </style>
  </defs>
  <path
     class="cls-1"
     d="m 183.60857,132.64 h -0.24 c -2.15,0 -4.08,0.77 -5.6,2.23 -1.58,1.47 -2.52,3.53 -2.57,5.67 -0.06,2.24 0.71,4.26 2.23,5.83 1.47,1.64 3.62,2.58 5.9,2.58 2.07,0 4.06,-0.79 5.6,-2.23 1.58,-1.47 2.52,-3.53 2.57,-5.67 0.06,-2.24 -0.71,-4.26 -2.23,-5.83 -1.47,-1.58 -3.53,-2.52 -5.67,-2.57 z m 3.88,12.61 c -1.14,1.07 -2.62,1.65 -4.18,1.65 -1.7,0 -3.29,-0.68 -4.47,-1.92 -2.29,-2.45 -2.17,-6.33 0.27,-8.66 1.12,-1.07 2.6,-1.66 4.16,-1.66 h 0.21 c 1.62,0.05 3.14,0.74 4.27,1.92 2.29,2.45 2.17,6.33 -0.27,8.65 z"
     id="path951" />
  <path
     class="cls-1"
     d="m 128.29857,169.82 c -0.17,0 -0.34,0 -0.5,0 -3.18,0 -6.19,1.2 -8.49,3.37 -5.02,4.75 -5.29,12.69 -0.6,17.71 2.39,2.51 5.74,3.96 9.19,3.96 3.18,0 6.22,-1.19 8.58,-3.35 2.45,-2.25 3.89,-5.43 3.96,-8.72 0.13,-3.37 -1.06,-6.56 -3.36,-8.99 -2.28,-2.42 -5.4,-3.82 -8.78,-3.96 z m 6.55,19.94 c -1.89,1.77 -4.36,2.75 -6.96,2.75 -2.84,0 -5.46,-1.13 -7.39,-3.19 -3.83,-4.09 -3.63,-10.53 0.45,-14.35 1.92,-1.79 4.33,-2.74 6.95,-2.74 h 0.32 c 2.7,0.06 5.21,1.2 7.08,3.19 1.86,1.99 2.81,4.5 2.74,7.27 -0.06,2.7 -1.2,5.21 -3.19,7.08 z"
     id="path953" />
  <path
     class="cls-1"
     d="m 20.038566,80.29 h 0.39 c 3.2,0 6.25,-1.21 8.58,-3.42 2.45,-2.25 3.89,-5.43 3.96,-8.72 0.14,-3.37 -1.06,-6.56 -3.35,-8.99 -2.25,-2.45 -5.43,-3.89 -8.72,-3.96 -0.17,0 -0.34,0 -0.51,0 -3.17,0 -6.19,1.2 -8.48,3.36 -2.4500002,2.25 -3.8900002,5.43 -3.9600002,8.73 -0.07,3.43 1.12,6.62 3.3500002,8.98 2.26,2.53 5.36,3.96 8.73,4.03 z m -6.56,-19.88 c 1.92,-1.79 4.33,-2.74 6.95,-2.74 h 0.32 c 2.7,0.06 5.21,1.2 7.08,3.19 1.86,1.99 2.81,4.5 2.74,7.27 -0.06,2.66 -1.23,5.24 -3.19,7.08 -1.89,1.77 -4.39,2.75 -7.02,2.75 h -0.25 c -2.7,-0.07 -5.21,-1.2 -7.08,-3.19 -1.86,-1.99 -2.81,-4.5 -2.74,-7.27 0.13,-2.81 1.23,-5.26 3.19,-7.08 z"
     id="path955" />
  <path
     class="cls-1"
     d="m 65.408566,23.15 c 2.07,0 4.06,-0.79 5.6,-2.23 1.58,-1.47 2.52,-3.53 2.57,-5.67 0.06,-2.24 -0.71,-4.26 -2.23,-5.83 -1.47,-1.58 -3.53,-2.52 -5.67,-2.57 h -0.24 c -2.15,0 -4.08,0.77 -5.6,2.23 -1.58,1.47 -2.52,3.53 -2.57,5.67 -0.06,2.24 0.71,4.26 2.23,5.83 1.47,1.64 3.62,2.58 5.9,2.58 z m -4.22,-12.61 c 1.12,-1.07 2.6,-1.66 4.16,-1.66 h 0.21 c 1.62,0.05 3.14,0.74 4.27,1.92 2.29,2.45 2.17,6.33 -0.27,8.65 -1.14,1.07 -2.62,1.65 -4.18,1.65 -1.7,0 -3.29,-0.68 -4.47,-1.92 -2.29,-2.45 -2.17,-6.33 0.27,-8.66 z"
     id="path957" />
  <g
     id="g978"
     transform="translate(-31.731434,-18.81)">
    <g
       id="g964">
      <polygon
         id="polygon1057"
         class="cls-2"
         points="129.12,111.42 140.18,94.3 131.78,94.3 119.11,115.46 119.11,94.3 111.69,94.3 111.69,129.65 117.36,129.65 124.64,118.31 130.8,126.87 130.8,126.87 132.62,129.65 141.51,129.65 132.83,116.78 132.83,116.85 " />
      <path
         id="path1059"
         class="cls-2"
         d="m 142.37,129.65 h 8.14 l 0.34,-0.89 2.48,-5.42 h 12.42 l 2.62,6.31 h 8.07 L 159.54,94.2 h -0.21 l -1.66,3.43 -15.31,32.02 v 0 z m 17.32,-20.02 h 0.34 l 3.52,8.3 h -7.66 l 3.79,-8.3 z" />
      <path
         id="path1061"
         class="cls-2"
         d="m 103.87,110 c -2.35,-0.96 -4.76,-1.51 -7.24,-1.92 -1.45,-0.27 -2.9,-0.55 -4.28,-1.1 -0.55,-0.21 -1.1,-0.48 -1.52,-0.96 -0.76,-0.96 -0.83,-2.26 -0.14,-3.5 0.21,-0.34 0.48,-0.69 0.76,-0.89 0.55,-0.34 1.17,-0.62 1.79,-0.75 1.66,-0.41 3.24,-0.27 4.9,-0.07 2.28,0.34 4.35,1.17 6.21,2.4 q 0.62,0.41 0.97,-0.21 c 0.9,-1.3 1.86,-2.61 2.76,-3.98 0.34,-0.48 0.62,-0.89 0.9,-1.3 -0.07,-0.14 -0.14,-0.21 -0.14,-0.21 -1.45,-0.96 -3.03,-1.71 -4.69,-2.26 -3.31,-1.03 -6.69,-1.44 -10.14,-1.17 -2.55,0.21 -4.97,0.82 -7.1,2.19 -2.48,1.65 -4.14,3.84 -4.62,6.86 -0.55,3.84 1.1,7.41 4.62,9.33 1.86,0.96 3.79,1.65 5.79,2.13 1.66,0.41 3.31,0.69 4.97,1.1 1.17,0.27 2.28,0.55 3.31,1.23 1.52,0.96 1.79,2.95 0.69,4.32 -0.62,0.82 -1.52,1.23 -2.48,1.51 -1.31,0.34 -2.69,0.41 -4,0.34 -3.45,-0.27 -6.62,-1.37 -9.31,-3.57 -0.14,-0.14 -0.34,-0.27 -0.55,-0.41 -1.45,1.99 -2.83,3.98 -4.28,5.9 0.07,0.14 0.14,0.21 0.21,0.27 2.35,1.71 4.9,2.95 7.79,3.57 2.97,0.69 5.93,0.96 8.97,0.69 2.21,-0.21 4.35,-0.62 6.35,-1.65 2,-1.03 3.66,-2.4 4.76,-4.39 0.83,-1.44 1.17,-3.09 1.17,-4.66 0.07,-2.26 -0.55,-4.32 -2.14,-5.97 -1.1,-1.37 -2.62,-2.19 -4.28,-2.88 v 0 z" />
      <path
         class="cls-2"
         d="m 200.36,115.92 c 0.28,-0.14 0.48,-0.21 0.69,-0.34 1.86,-0.96 3.45,-2.13 4.69,-3.84 1.72,-2.54 2.14,-5.28 1.66,-8.16 -0.41,-2.4 -1.59,-4.32 -3.38,-5.83 -2.69,-2.26 -5.79,-3.36 -9.24,-3.43 -5.45,-0.14 -10.69,-0.07 -15.93,-0.07 -0.21,0 -0.48,0 -0.76,0.07 -0.21,11.79 -0.21,23.52 0,35.25 1.86,0.21 6.9,0.21 8.07,-0.07 0.07,-4.05 0.07,-8.09 0.14,-12.21 0.28,0 0.41,-0.07 0.62,-0.07 1.31,0 2.62,0.07 3.93,0 0.62,0 0.9,0.21 1.24,0.69 2.48,3.77 4.97,7.47 7.45,11.25 0.21,0.27 0.34,0.41 0.69,0.41 2.97,0.14 5.86,0.14 8.83,0 0.07,0 0.14,-0.07 0.34,-0.07 -3.04,-4.53 -6,-9.05 -9.04,-13.58 z m -1.45,-8.78 c -0.28,1.23 -0.97,2.13 -2,2.67 -0.83,0.48 -1.79,0.82 -2.83,0.89 -2.41,0.21 -4.76,0.21 -7.1,0.07 -0.21,0 -0.34,-0.07 -0.62,-0.07 -0.14,-3.36 -0.14,-6.65 0,-9.94 0.07,-0.07 0.21,-0.07 0.28,-0.07 2.48,-0.14 4.97,-0.21 7.45,0.07 1.17,0.14 2.28,0.48 3.24,1.23 0.69,0.55 1.24,1.3 1.52,2.19 0.28,0.96 0.28,1.92 0.07,2.95 z"
         id="path962" />
    </g>
    <g
       id="g976">
      <path
         class="cls-2"
         d="m 105.22,138.12 c -3.96,0 -7.19,3.23 -7.19,7.21 0,3.98 3.22,7.21 7.19,7.21 3.97,0 7.19,-3.23 7.19,-7.21 0,-3.98 -3.22,-7.21 -7.19,-7.21 z m 0,12.42 c -2.86,0 -5.19,-2.34 -5.19,-5.21 0,-2.87 2.33,-5.21 5.19,-5.21 2.86,0 5.19,2.34 5.19,5.21 0,2.87 -2.33,5.21 -5.19,5.21 z"
         id="path966" />
      <path
         class="cls-2"
         d="m 123.17,80.75 c -0.7,0 -1.28,0.58 -1.28,1.3 0,0.72 0.57,1.3 1.28,1.3 0.71,0 1.28,-0.58 1.28,-1.3 0,-0.72 -0.57,-1.3 -1.28,-1.3 z"
         id="path968" />
      <path
         class="cls-2"
         d="m 228.15,151.97 -3.42,-69.41 c -0.04,-0.69 -0.44,-1.32 -1.05,-1.64 l -2.96,-1.53 c -0.59,-0.31 -1.28,-0.31 -1.87,0 -0.59,0.31 -0.98,0.87 -1.07,1.54 l -0.14,1.11 c -0.73,-1.66 -1.53,-3.31 -2.37,-4.9 -8.4,-16 -22.03,-28.98 -40.49,-38.59 l -0.05,-0.03 c -1.43,-0.65 -2.89,-1.26 -4.34,-1.82 l 5.57,-0.32 c 0.67,-0.04 1.25,-0.39 1.61,-0.96 0.35,-0.57 0.4,-1.25 0.13,-1.86 l -1.18,-2.73 c -0.05,-0.11 -0.11,-0.23 -0.19,-0.36 -0.17,-0.26 -0.37,-0.48 -0.62,-0.67 -0.2,-0.15 -0.43,-0.27 -0.67,-0.36 -0.19,-0.07 -0.39,-0.11 -0.58,-0.14 l -68.73,-7.85 c -2.37,-1.6 -5.15,-2.51 -8.04,-2.64 -0.17,0 -0.34,0 -0.5,0 -3.79,0 -7.47,1.45 -10.37,4.08 -0.69,0.63 -2.01,1.99 -3.11,4.09 -0.72,1.39 -1.23,2.87 -1.5,4.41 l -0.57,1.08 -36.18,34.8 c -2.73,0.97 -5.25,2.5 -7.29,4.4 -6.28,5.89 -8.18,15.17 -4.75,23.04 l 11.66,66.33 c 0,0 0,0.06 -0.03,0.08 l -0.88,0.5 c -0.81,0.47 -1.36,1.26 -1.5,2.19 -0.14,0.93 0.14,1.85 0.78,2.54 l 35.89,38.64 c 0.64,0.69 1.55,1.04 2.5,0.95 0.94,-0.09 1.77,-0.61 2.27,-1.41 l 0.64,-1.04 65.48,15.87 c 2.94,1.54 6.2,2.35 9.42,2.35 5.21,0 10.18,-1.96 14,-5.52 2.07,-1.94 3.69,-4.28 4.8,-6.96 l 37.13,-33.98 0.4,-0.43 c 1.01,-0.09 2,-0.28 2.96,-0.57 2.13,-0.64 7.37,-2.73 9.94,-8.4 3.05,-6.75 -0.2,-12.96 -0.72,-13.88 z m -7.84,-68.82 c 0.02,-0.14 0.1,-0.26 0.23,-0.33 0.13,-0.07 0.28,-0.07 0.4,0 l 0.61,0.31 c 0,0 0.09,0.08 0.12,0.12 0,0 0.05,0.08 0.08,0.16 0.06,0.5 1.22,23.51 3.25,64.8 -2.63,-2.27 -5.96,-3.58 -9.4,-3.7 -0.21,-0.01 -0.42,-0.02 -0.64,-0.02 -0.75,0 -1.51,0.07 -2.31,0.21 l 7.67,-61.56 z M 173.34,41.13 c 5.69,2.94 11.09,6.41 16.05,10.34 10.48,8.28 16.61,16.56 18.76,19.73 1.45,2.14 2.84,4.43 4.13,6.81 l -36.31,0.03 c -2.76,-0.05 -5.09,2 -5.32,4.74 -0.23,2.77 1.84,5.27 4.64,5.57 h 29.51 c 0.5,0.2 0.87,0.64 0.95,1.17 0.12,0.78 -0.45,1.31 -0.47,1.33 l -0.26,0.24 2.21,1.2 0.13,-0.16 c 0.29,-0.36 0.94,-1.34 0.88,-2.68 -0.04,-0.9 -0.34,-1.68 -0.89,-2.32 -0.56,-0.65 -1.34,-1.09 -2.24,-1.25 h -29.63 c -1.41,-0.19 -2.47,-1.48 -2.35,-2.89 0.12,-1.42 1.36,-2.51 2.79,-2.45 l 37.64,-0.03 c 1.22,2.49 2.3,5.03 3.21,7.53 l -0.86,6.84 h -7.28 c 0,0 0.33,0.42 0.33,0.42 0.23,0.28 0.46,0.57 0.71,0.86 0.33,0.39 0.67,0.77 0.99,1.12 l 0.07,0.08 h 4.86 c 0,0 -6.05,48.27 -6.05,48.27 -1.79,0.69 -3.47,1.75 -4.86,3.08 -2.53,2.4 -4.18,5.61 -4.65,9.05 l -37.69,23.31 c -0.92,-0.12 -1.86,-0.19 -2.79,-0.19 -4.28,0 -8.38,1.3 -11.86,3.77 l -44.56,-11.04 0.97,-1.58 c 0.49,-0.8 0.39,-1.84 -0.25,-2.52 l -5.87,-6.32 c 2.54,0 5.13,0 7.73,0 11.19,0.02 22.77,0.03 28.96,-0.19 3.2,-0.11 6.34,-1.34 8.84,-3.43 l 9.57,-7.06 c 2,-1.47 4.34,-2.31 6.77,-2.43 l 34.01,-0.1 c 1.47,0 2.84,-0.58 3.86,-1.64 0.98,-1.01 1.51,-2.36 1.46,-3.71 -0.09,-2.52 -2.12,-4.64 -4.75,-4.93 h -12.85 c 0,0 0,2.49 0,2.49 h 12.65 c 1.33,0.17 2.41,1.28 2.45,2.52 0.03,0.67 -0.25,1.35 -0.76,1.87 -0.55,0.56 -1.29,0.88 -2.1,0.88 l -34.05,0.1 c -2.96,0.14 -5.8,1.15 -8.2,2.92 l -9.64,7.11 c -2.12,1.77 -4.74,2.8 -7.38,2.9 -6.04,0.21 -17.39,0.2 -28.37,0.18 h -2.04 c -2.51,0 -5.01,0 -7.45,0 h -1.07 c 0,0 -16.24,-17.46 -16.24,-17.46 -0.67,-0.72 -1.73,-0.88 -2.58,-0.4 l -1.02,0.58 -3.69,-20.74 h 5.29 c 0,0 0.07,-0.1 0.07,-0.1 0.21,-0.32 0.42,-0.65 0.63,-0.98 0.21,-0.33 0.42,-0.67 0.63,-1 l 0.24,-0.38 -7.29,0.02 -3.69,-20.73 v -0.03 c 2.83,-3.5 4.42,-7.73 4.62,-12.26 0,-0.73 0,-1.42 -0.07,-2.05 l 1.29,-1.82 h 46.23 v -2.5 H 75.59 L 93.45,55.68 128,55.63 c 3.49,0 6.9,0.98 9.86,2.83 l 10.75,6.73 c 3.35,2.1 7.2,3.21 11.12,3.22 h 2.14 c 3.96,0 7.91,-0.02 11.86,-0.04 5.3,-0.03 11.31,-0.06 17.12,-0.02 h 0.25 c 0,0 0.01,-2.5 0.01,-2.5 h -0.25 c -5.82,-0.03 -11.83,0 -17.14,0.02 -4.47,0.02 -9.23,0.04 -14,0.04 -3.45,0 -6.83,-0.99 -9.79,-2.84 l -10.75,-6.73 c -3.36,-2.1 -7.23,-3.21 -11.22,-3.21 l -32.74,0.05 2.94,-4.14 c 3.58,-0.27 6.81,-1.67 9.33,-4.06 1.42,-1.35 2.59,-2.96 3.39,-4.66 l 51.79,-3.14 c 3.5,1.01 7.08,2.34 10.61,3.95 z M 109.52,24.99 c 0,0 0.08,-0.12 0.2,-0.12 0,0 0.02,0 0.03,0 l 63.9,7.33 c 0.14,0.02 0.26,0.11 0.32,0.24 l 0.37,0.85 c 0.02,0.06 0.02,0.12 -0.01,0.17 -0.03,0.05 -0.09,0.09 -0.15,0.09 l -61.99,3.74 c -0.12,0.02 -0.16,-0.04 -0.19,-0.08 -0.05,-0.06 -0.07,-0.13 -0.05,-0.21 0.18,-0.83 0.3,-1.69 0.35,-2.58 0.11,-3.31 -0.84,-6.49 -2.77,-9.21 -0.08,-0.11 -0.03,-0.21 0,-0.25 z m -20.67,0.06 v 0 c 2.23,-2.11 5.2,-3.26 8.36,-3.26 h 0.37 c 3.25,0.12 6.26,1.48 8.48,3.83 2.23,2.42 3.39,5.52 3.27,8.73 -0.12,3.25 -1.49,6.26 -3.83,8.48 -2.26,2.12 -5.22,3.28 -8.33,3.28 -3.42,0 -6.6,-1.37 -8.95,-3.84 -4.54,-4.92 -4.26,-12.64 0.63,-17.21 z m -6.63,10.94 c 0.41,3.17 1.76,6.04 3.9,8.31 2.24,2.41 5.2,3.99 8.57,4.57 L 71.8,81.12 c -0.91,-3.2 -2.51,-6.06 -4.76,-8.49 -3.76,-3.96 -8.83,-6.26 -14.26,-6.46 -0.23,-0.01 -0.45,-0.02 -0.68,-0.02 -0.41,0 -0.84,0.02 -1.34,0.06 L 82.22,36 Z M 40.2,73.84 c 3.29,-3.04 7.56,-4.72 12.04,-4.72 0.76,0 1.49,0.04 2.6,0.22 3.78,0.63 7.1,2.29 9.61,4.79 3.56,3.56 5.42,8.2 5.22,13.06 -0.19,4.76 -2.16,9.1 -5.54,12.22 -3.26,3.05 -7.51,4.73 -11.98,4.73 -4.81,0 -9.47,-2 -12.77,-5.49 C 36.18,95.2 34.5,90.72 34.66,86.02 34.82,81.33 36.79,77 40.2,73.83 Z m -2.73,26.92 c 3.89,4.04 9.12,6.26 14.76,6.26 4.89,0 9.63,-1.75 13.35,-4.93 l 7.64,42.87 -25.38,14.58 -10.36,-58.79 z m 44.31,101.86 v 0 c -0.06,0.1 -0.17,0.17 -0.29,0.18 -0.11,0.01 -0.24,-0.03 -0.32,-0.12 l -35.31,-38 c -0.1,-0.1 -0.14,-0.24 -0.12,-0.38 0.02,-0.14 0.1,-0.26 0.23,-0.33 l 31.47,-18.06 c 0.07,-0.04 0.15,-0.06 0.23,-0.06 0.13,0 0.25,0.05 0.34,0.15 l 23.07,24.83 c 0.14,0.15 0.16,0.38 0.05,0.56 l -19.36,31.25 z m 4.53,-1.8 15.21,-24.62 43.55,10.7 c -3.58,3.69 -5.65,8.53 -5.84,13.66 -0.2,5.29 1.69,10.39 5.33,14.4 L 86.32,200.82 Z m 85.35,13.14 c -3.26,3.05 -7.51,4.73 -11.98,4.73 -4.81,0 -9.47,-2 -12.77,-5.49 -3.23,-3.49 -4.9,-7.94 -4.71,-12.53 0.19,-4.75 2.16,-9.09 5.54,-12.22 3.22,-3.03 7.47,-4.71 11.96,-4.71 4.85,0 9.51,2.02 12.79,5.54 6.58,7.02 6.21,18.1 -0.83,24.69 z m 8.23,-10.04 c 0.82,-6.11 -1.12,-12.18 -5.32,-16.69 -2.25,-2.36 -5.07,-4.19 -8.17,-5.29 l 33.67,-20.77 c 0.32,3.31 1.75,6.44 4.02,8.83 2.12,2.24 4.88,3.79 8,4.48 z m 43.56,-35.4 c -2.26,2.12 -5.23,3.28 -8.35,3.28 -3.38,0 -6.64,-1.4 -8.92,-3.85 -4.58,-4.89 -4.32,-12.64 0.57,-17.28 2.23,-2.11 5.2,-3.26 8.35,-3.26 h 0.37 c 3.25,0.12 6.26,1.49 8.48,3.83 2.25,2.4 3.43,5.52 3.33,8.78 -0.1,3.26 -1.46,6.27 -3.83,8.5 z"
         id="path970" />
      <path
         class="cls-2"
         d="m 133.65,137.7 -6.03,-3.58 -1.02,1.72 6.03,3.58 c 2.78,1.65 5.96,2.52 9.19,2.52 h 31.68 v -2 h -31.68 c -2.87,0 -5.7,-0.77 -8.17,-2.24 z"
         id="path972" />
      <path
         class="cls-2"
         d="m 177.65,142.06 c 0.61,0 1.1,-0.5 1.1,-1.12 0,-0.62 -0.49,-1.12 -1.1,-1.12 -0.61,0 -1.1,0.5 -1.1,1.12 0,0.62 0.49,1.12 1.1,1.12 z"
         id="path974" />
    </g>
  </g>
</svg>
